<?xml version="1.0" encoding="iso-8859-1"?>
<!-- Generator: Adobe Illustrator 21.0.0, SVG Export Plug-In . SVG Version: 6.00 Build 0)  -->
<svg xmlns="http://www.w3.org/2000/svg" xmlns:xlink="http://www.w3.org/1999/xlink" version="1.1" id="Capa_1" x="0px" y="0px" viewBox="0 0 512.255 512.255" style="enable-background:new 0 0 512.255 512.255;" xml:space="preserve" width="512" height="512" fill='#246914'>
<g>
	<path d="M15.007,351.277l178.341-0.07c0.455,0.007,0.909,0.01,1.363,0.01c23.801,0,46.167-9.132,63.153-25.836   c17.334-17.05,26.88-39.834,26.88-64.157c0-49.626-40.373-90-89.999-90c-25.24,0-49.437,10.68-66.463,29.317L4.5,325.566   c-4.353,4.267-5.69,10.743-3.385,16.385c2.306,5.641,7.793,9.326,13.886,9.326C15.003,351.277,15.005,351.277,15.007,351.277z"/>
	<path d="M497.255,450.098h-36.82l4.346-4.288c5.897-5.817,5.962-15.315,0.144-21.212c-5.818-5.899-15.315-5.963-21.212-0.144   l-25.993,25.644H304.67V409.28c64.666-24.274,110.813-86.731,110.813-159.773c0-33.308-9.972-66.256-28.261-94.011   c12.983-13.152,21.626-30.057,24.727-48.274h12.234c8.284,0,15-6.716,15-15s-6.716-15-15-15h-12.196   c-7.163-42.511-44.227-75-88.743-75c-49.626,0-89.999,40.374-89.999,90c0,0.351,0.019,0.695,0.023,1.046l-47.889,48.324   c3.106-0.245,6.23-0.369,9.366-0.369c66.168,0,119.999,53.832,119.999,120c0,32.43-12.729,62.811-35.844,85.546   c-22.587,22.213-52.485,34.447-84.188,34.447c-0.52,0-1.038-0.003-1.559-0.01l-56.584,0.022   c22.467,18.435,49.395,30.94,78.101,36.144v32.726H15.239c-8.284,0-15,6.716-15,15s6.716,15,15,15H297.79l25.961,25.612   c2.922,2.884,6.729,4.322,10.533,4.322c3.873,0,7.744-1.491,10.679-4.466c5.818-5.896,5.754-15.395-0.144-21.212l-4.315-4.257   h156.75c8.284,0,15-6.716,15-15S505.539,450.098,497.255,450.098z M347.389,62.275c8.262,0,15,6.738,15,15c0,8.262-6.738,15-15,15   s-15-6.739-15-15C332.388,69.013,339.127,62.275,347.389,62.275z M244.669,420.097c0.074,0,0.148,0.002,0.223,0.002   c10.156,0,20.106-0.896,29.778-2.606v32.605h-30.001V420.097z"/>
</g>















</svg>
