<?xml version="1.0" encoding="iso-8859-1"?>
<!-- Generator: Adobe Illustrator 19.0.0, SVG Export Plug-In . SVG Version: 6.00 Build 0)  -->
<svg version="1.1" id="Capa_1" xmlns="http://www.w3.org/2000/svg" xmlns:xlink="http://www.w3.org/1999/xlink" x="0px" y="0px"
	 viewBox="0 0 511.997 511.997" style="enable-background:new 0 0 511.997 511.997;" xml:space="preserve" fill='#246914'>
<g>
	<g>
		<polygon points="255.998,0 1.044,191.873 19.092,215.855 255.998,37.564 492.906,215.855 510.953,191.873 		"/>
	</g>
</g>
<g>
	<g>
		<path d="M255.998,150.84c-19.308,0-35.016,15.708-35.016,35.016s15.708,35.016,35.016,35.016s35.016-15.708,35.016-35.016
			S275.306,150.84,255.998,150.84z"/>
	</g>
</g>
<g>
	<g>
		<path d="M465.091,352.93V232.485L255.998,75.127L46.905,232.486V352.93H9.889v30.013h492.218V352.93H465.091z M255.998,309.91
			c-8.288,0-15.007-6.719-15.007-15.007s6.719-15.007,15.007-15.007s15.007,6.719,15.007,15.007S264.287,309.91,255.998,309.91z
			 M255.998,250.884c-35.857,0-65.029-29.172-65.029-65.029c0-35.857,29.172-65.029,65.029-65.029
			c35.857,0,65.029,29.172,65.029,65.029C321.027,221.712,291.855,250.884,255.998,250.884z"/>
	</g>
</g>
<g>
	<g>
		<rect x="210.982" y="412.953" width="90.04" height="99.044"/>
	</g>
</g>
<g>
</g>
<g>
</g>
<g>
</g>
<g>
</g>
<g>
</g>
<g>
</g>
<g>
</g>
<g>
</g>
<g>
</g>
<g>
</g>
<g>
</g>
<g>
</g>
<g>
</g>
<g>
</g>
<g>
</g>
</svg>
