<?xml version="1.0" encoding="iso-8859-1"?>
<!-- Generator: Adobe Illustrator 17.1.0, SVG Export Plug-In . SVG Version: 6.00 Build 0)  -->
<!DOCTYPE svg PUBLIC "-//W3C//DTD SVG 1.1//EN" "http://www.w3.org/Graphics/SVG/1.1/DTD/svg11.dtd">
<svg version="1.1" id="Capa_1" xmlns="http://www.w3.org/2000/svg" xmlns:xlink="http://www.w3.org/1999/xlink" x="0px" y="0px"
	 viewBox="0 0 194.75 194.75" style="enable-background:new 0 0 194.75 194.75;" xml:space="preserve" fill='#246914'>
<path d="M75.965,84.61h42.819v26.25H75.965V84.61z M65.965,84.61H23.146v26.25h42.819V84.61z M128.785,110.86h42.819V84.61h-42.819
	V110.86z M65.965,120.86H23.146v26.25h42.819V120.86z M194.75,58.287v95.517c0,8.641-7.029,15.67-15.669,15.67H15.669
	c-8.64,0-15.669-7.029-15.669-15.67V58.287c0-7.947,6.465-14.412,14.411-14.412h5.552V30.276c0-2.762,2.239-5,5-5h16.673
	c2.761,0,5,2.238,5,5v13.599h101.477V30.276c0-2.762,2.239-5,5-5h16.673c2.761,0,5,2.238,5,5v13.599h5.552
	C188.285,43.875,194.75,50.34,194.75,58.287z M158.113,56.61h6.673V35.276h-6.673V56.61z M29.963,56.61h6.673V35.276h-6.673V56.61z
	 M181.604,79.61c0-2.762-2.239-5-5-5h-52.819H70.965H18.146c-2.761,0-5,2.238-5,5v36.25v36.25c0,2.762,2.239,5,5,5h52.819h52.819
	h52.819c2.761,0,5-2.238,5-5v-36.25V79.61z M128.785,147.11h42.819v-26.25h-42.819V147.11z M118.785,120.86H75.965v26.25h42.819
	V120.86z"/>
<g>
</g>
<g>
</g>
<g>
</g>
<g>
</g>
<g>
</g>
<g>
</g>
<g>
</g>
<g>
</g>
<g>
</g>
<g>
</g>
<g>
</g>
<g>
</g>
<g>
</g>
<g>
</g>
<g>
</g>
</svg>
