<svg id="Layer_1" enable-background="new 0 0 512 512" height="512" viewBox="0 0 512 512" width="512" xmlns="http://www.w3.org/2000/svg" fill='#246914'><g><path d="m373.892 24c-36.89 0-71.571 14.366-97.656 40.451l-20.236 20.236-20.236-20.236c-26.085-26.085-60.766-40.451-97.657-40.451-76.152 0-138.107 61.955-138.107 138.107v16c0 36.89 14.366 71.571 40.451 97.656l209.893 209.893c3.125 3.125 8.189 3.124 11.313 0l209.893-209.893c26.084-26.084 40.45-60.765 40.45-97.655v-16c0-76.153-61.955-138.108-138.108-138.108zm122.108 154.108c0 32.616-12.701 63.28-35.764 86.343l-204.236 204.236-204.236-204.236c-23.063-23.063-35.764-53.727-35.764-86.343v-16c0-67.331 54.777-122.108 122.108-122.108 32.616 0 63.28 12.701 86.343 35.764l25.893 25.893c3.121 3.122 8.19 3.124 11.313 0l25.893-25.893c23.062-23.063 53.726-35.764 86.343-35.764 67.33 0 122.107 54.777 122.107 122.107z"/><path d="m368 168h-32c-35.455 0-66.076 21.078-80 51.36-13.924-30.282-44.545-51.36-80-51.36h-32c-4.418 0-8 3.582-8 8v24c0 48.523 39.477 88 88 88h24v32c0 4.418 3.582 8 8 8s8-3.582 8-8v-32h24c48.523 0 88-39.477 88-88v-24c0-4.418-3.582-8-8-8zm-216 32v-16h24c39.701 0 72 32.299 72 72v6.37l-50.732-44.39c-3.326-2.911-8.379-2.573-11.289.752s-2.573 8.379.752 11.289l47.977 41.979h-10.708c-39.701 0-72-32.299-72-72zm208 0c0 39.701-32.299 72-72 72h-10.708l47.977-41.979c3.325-2.909 3.662-7.963.752-11.289-2.909-3.325-7.963-3.662-11.289-.752l-50.732 44.39v-6.37c0-39.701 32.299-72 72-72h24z"/></g></svg>