<svg id="Layer_1" enable-background="new 0 0 512 512" height="512" viewBox="0 0 512 512" width="512" xmlns="http://www.w3.org/2000/svg" fill='#C9C6C6'><g><path d="m264 256v.001c0 2.483 2.924 3.81 4.793 2.175l45.687-39.976c3.297-2.885 8.394-2.86 11.376.349 3.086 3.32 2.799 8.508-.588 11.471l-42.188 36.915c-2.008 1.757-.765 5.065 1.903 5.065h3.017c39.764 0 72-32.235 72-72v-13.11c0-1.596-1.294-2.89-2.89-2.89h-21.11c-39.764 0-72 32.236-72 72z"/><path d="m176 184h-21.11c-1.596 0-2.89 1.294-2.89 2.89v13.11c0 39.765 32.236 72 72 72h3.017c2.669 0 3.911-3.308 1.903-5.065l-42.188-36.915c-3.325-2.909-3.662-7.963-.752-11.289 2.909-3.325 7.963-3.663 11.289-.752l45.939 40.197c1.869 1.635 4.793.308 4.793-2.175v-.001c-.001-39.764-32.237-72-72.001-72z"/><path d="m373.892 24c-36.89 0-71.571 14.366-97.656 40.451l-20.236 20.236-20.236-20.236c-26.085-26.085-60.766-40.451-97.657-40.451-76.152 0-138.107 61.955-138.107 138.107v16c0 36.89 14.366 71.571 40.451 97.656l209.893 209.893c3.125 3.125 8.189 3.124 11.313 0l209.893-209.893c26.084-26.084 40.45-60.765 40.45-97.655v-16c0-76.153-61.955-138.108-138.108-138.108zm2.108 176c0 48.601-39.399 88-88 88h-21c-1.657 0-3 1.343-3 3v28.726c0 4.261-3.216 7.982-7.468 8.257-4.659.301-8.532-3.388-8.532-7.983v-29c0-1.657-1.343-3-3-3h-21c-48.601 0-88-39.399-88-88v-24c0-4.418 3.582-8 8-8h32c33.373 0 62.463 18.676 77.377 46.123 1.13 2.08 4.116 2.08 5.246 0 14.914-27.447 44.004-46.123 77.377-46.123h32c4.418 0 8 3.582 8 8z"/></g></svg>