<svg id="Capa_1" enable-background="new 0 0 511.754 511.754" height="512" viewBox="0 0 511.754 511.754" width="512" xmlns="http://www.w3.org/2000/svg"><g><path d="m458.527 347.124c.126 42.006-25.062 81.829-63.007 99.796-41.994 19.883-90.753 9.15-124.653-21.326v86.16h-30v-86.16c-36.641 32.94-88.339 42.547-132.358 17.315-37.451-21.467-55.407-60.416-55.282-102.445 34.116-30.67 80.305-42.41 123.46-23.1 35.22 15.75 59.31 48.7 64.18 86.32v-79.3l15 11.65 15-11.65v79.3c5.147-39.76 32.469-74.5 69.982-88.72 42.09-15.956 85.14-3.732 117.659 25.5z"/><path d="m255.867 295.566 128.964-138.762c36.967-37.908 34.916-100.558-5.574-135.12-35.359-30.182-89.249-28.639-122.916 3.27-.078-.074-.159-.145-.237-.219-.078.074-.159.145-.237.219-33.667-31.909-87.557-33.452-122.916-3.27-40.49 34.562-42.541 97.212-5.574 135.12z"/></g></svg>