<?xml version="1.0" encoding="iso-8859-1"?>
<!-- Generator: Adobe Illustrator 19.0.0, SVG Export Plug-In . SVG Version: 6.00 Build 0)  -->
<svg version="1.1" id="Capa_1" xmlns="http://www.w3.org/2000/svg" xmlns:xlink="http://www.w3.org/1999/xlink" x="0px" y="0px"
	 viewBox="0 0 512 512" style="enable-background:new 0 0 512 512;" xml:space="preserve">
<path style="fill:#40DA80;" d="M316,421h-15v-15c0-57.891,47.109-105,105-105h15v15C421,373.891,373.891,421,316,421z"/>
<polygon style="fill:#19BD9C;" points="266.605,477.605 245.395,455.395 305.395,395.395 326.605,416.605 "/>
<path style="fill:#6AE390;" d="M211,361h-15c-57.891,0-105-47.109-105-105v-15h15c57.891,0,105,47.109,105,105V361z"/>
<rect x="183.578" y="360.993" transform="matrix(-0.7071 -0.7071 0.7071 -0.7071 119.9443 801.6657)" style="fill:#40DA80;" width="84.849" height="29.997"/>
<rect x="241" y="286" style="fill:#725D57;" width="30" height="226"/>
<rect x="256" y="286" style="fill:#68544F;" width="15" height="226"/>
<path style="fill:#FF7C96;" d="M331.3,0c-31.5,0-59.101,16.199-75.3,40.8C239.801,16.199,212.5,0,181,0
	c-52.8,0-89.7,41.4-89.7,100.8c0,73.5,63.6,114.699,138.3,180.399L256,306.1l41.7-35.1C366.099,211.3,421,168.6,421,100.8
	C421,41.4,384.101,0,331.3,0z"/>
<path style="fill:#FF5C7D;" d="M297.7,271L256,306.099V40.8C272.199,16.199,299.801,0,331.3,0C384.1,0,421,41.4,421,100.8
	C421,168.6,366.099,211.3,297.7,271z"/>
<rect x="151" y="482" style="fill:#725D57;" width="210" height="30"/>
<rect x="256" y="482" style="fill:#68544F;" width="105" height="30"/>
<g>
</g>
<g>
</g>
<g>
</g>
<g>
</g>
<g>
</g>
<g>
</g>
<g>
</g>
<g>
</g>
<g>
</g>
<g>
</g>
<g>
</g>
<g>
</g>
<g>
</g>
<g>
</g>
<g>
</g>
</svg>
