<?xml version="1.0" encoding="iso-8859-1"?>
<!-- Generator: Adobe Illustrator 19.0.0, SVG Export Plug-In . SVG Version: 6.00 Build 0)  -->
<svg version="1.1" id="Capa_1" xmlns="http://www.w3.org/2000/svg" xmlns:xlink="http://www.w3.org/1999/xlink" x="0px" y="0px"
	 viewBox="0 0 512 512" style="enable-background:new 0 0 512 512;" xml:space="preserve" fill='#246914'>
<g>
	<g>
		<path d="M406,302c-55.525,0-100.666,43.466-104.301,98.09L271,430.789V292.028l11.294-9.891
			c74.771-65.55,138.413-107.888,138.413-181.341C420.707,41.455,383.764,0,330.868,0C299.828,0,272.216,16.011,256,40.444
			C239.784,16.011,212.172,0,181.132,0c-52.896,0-89.839,41.455-89.839,100.796c0,75.145,67.546,119.213,138.413,181.341
			L241,292.028v78.761l-30.699-30.699C206.666,285.466,161.525,242,106,242H91v15c0,55.525,43.466,100.666,98.09,104.301
			l51.91,51.91V482h-90v30h210v-30h-90v-8.789l51.91-51.91C377.534,417.666,421,372.525,421,317v-15H406z"/>
	</g>
</g>
<g>
</g>
<g>
</g>
<g>
</g>
<g>
</g>
<g>
</g>
<g>
</g>
<g>
</g>
<g>
</g>
<g>
</g>
<g>
</g>
<g>
</g>
<g>
</g>
<g>
</g>
<g>
</g>
<g>
</g>
</svg>
