<svg xmlns="http://www.w3.org/2000/svg" width="119.452" height="48.594" viewBox="0 0 119.452 48.594">
  <g id="Gruppe_107" data-name="Gruppe 107" transform="translate(-357.976 -327.309)">
    <path id="Pfad_35" data-name="Pfad 35" d="M1.976,21H3.25v1.04a8.242,8.242,0,0,1,4.316-1.274,3.852,3.852,0,0,1,3.445,1.56,9.2,9.2,0,0,1,1.053,5.018,11.824,11.824,0,0,1-.546,3.965,4.035,4.035,0,0,1-1.794,2.21,6.74,6.74,0,0,1-3.354.715,15.232,15.232,0,0,1-3.094-.312V39.9h-1.3ZM6.552,33.116A3.729,3.729,0,0,0,9.8,31.777a7.56,7.56,0,0,0,.962-4.329A8.256,8.256,0,0,0,9.945,23.2,2.7,2.7,0,0,0,7.514,21.91a7.134,7.134,0,0,0-1.937.3,10.1,10.1,0,0,0-1.729.637l-.572.338v9.594A25.683,25.683,0,0,0,6.552,33.116Zm8.58-17.992h1.3V34h-1.3Zm7.592,19.11a3.35,3.35,0,0,1-2.613-.988,3.992,3.992,0,0,1-.9-2.782,3.784,3.784,0,0,1,.884-2.717,4.572,4.572,0,0,1,2.834-1.157l4.654-.468V24.874a3.274,3.274,0,0,0-.637-2.223,2.23,2.23,0,0,0-1.755-.715q-1.144,0-2.132.078t-3.094.312L19.89,21.26a29.174,29.174,0,0,1,4.992-.494,4.05,4.05,0,0,1,3.016.988,4.339,4.339,0,0,1,.962,3.12v7.2a.893.893,0,0,0,.494.7,3.3,3.3,0,0,0,1.3.39L30.6,34.234a4.629,4.629,0,0,1-1.677-.286,2.673,2.673,0,0,1-1.157-.806A12.24,12.24,0,0,1,22.724,34.234Zm.1-1.118a11.936,11.936,0,0,0,4.056-.728l.7-.234V27.188l-4.5.442a2.8,2.8,0,0,0-1.937.754,2.792,2.792,0,0,0-.585,1.924Q20.566,33.116,22.828,33.116ZM32.422,21H33.7v.988a10.291,10.291,0,0,1,2.314-.949,8.873,8.873,0,0,1,2.21-.273,4.687,4.687,0,0,1,2.561.585,3.137,3.137,0,0,1,1.248,1.95,16.649,16.649,0,0,1,.351,3.913V34H41.132V27.24a15.926,15.926,0,0,0-.247-3.224,2.724,2.724,0,0,0-.871-1.612,2.931,2.931,0,0,0-1.846-.494,8.794,8.794,0,0,0-2.184.286,7.648,7.648,0,0,0-1.69.6l-.572.286V34h-1.3ZM49.608,34.286a3.836,3.836,0,0,1-1.95-.416,2.38,2.38,0,0,1-1.014-1.417,10.048,10.048,0,0,1-.312-2.847V22.144H44.356V21h1.976V16.866H47.58V21h4.55v1.144H47.58v6.578a19.786,19.786,0,0,0,.13,2.665A2.233,2.233,0,0,0,48.3,32.7a2.1,2.1,0,0,0,1.495.442l2.47-.208.1,1.092A21.234,21.234,0,0,1,49.608,34.286Z" transform="translate(356 336)" fill="#246914"/>
    <path id="Pfad_36" data-name="Pfad 36" d="M1.914,45.477q-.078-4.961-.176-8.5t-.176-5.957q-.078-2.422-.176-3.848T1.25,24.891q-.039-.859-.078-1.23a6.9,6.9,0,0,1-.039-.723q0-.664.391-.84a2.382,2.382,0,0,1,.977-.176,1.816,1.816,0,0,1,1.035.254q.371.254.371,1.309L4.648,44.5q.039,0,.391-.078a8.43,8.43,0,0,0,.82-.234q.469-.156.977-.332a7.023,7.023,0,0,0,.82-.332q.469-.2,1.406-.625t2.109-.977q1.172-.547,2.48-1.152t2.5-1.133q1.191-.527,2.109-.977t1.387-.645h.469a2.847,2.847,0,0,1,.469.039.7.7,0,0,1,.391.2.78.78,0,0,1,.2.469,1.473,1.473,0,0,1-.137.664,5.959,5.959,0,0,1-.371.625,16.452,16.452,0,0,0-4.512,1.563q-2.207,1.133-4.375,2.344A45.252,45.252,0,0,1,7.4,46.063,11.438,11.438,0,0,1,2.891,47Q1.914,47,1.914,45.477Zm20.411.742q0-2.539-.1-5.352t-.2-5.684q-.1-2.871-.059-5.645a45.708,45.708,0,0,1,.352-5.2,1.241,1.241,0,0,1,.371-.059q.293-.02.41-.02a1.882,1.882,0,0,1,.879.176.782.782,0,0,1,.332.762q0,2.3-.02,5.02t-.039,5.508q-.02,2.793-.02,5.527t.078,4.961q.039.664-.254.879a1.189,1.189,0,0,1-.723.215,1.347,1.347,0,0,1-.781-.215Q22.247,46.883,22.325,46.219ZM21.466,18.25a.63.63,0,0,1,.313-.625,1.55,1.55,0,0,1,.7-.156q.781,0,.977.508a3.251,3.251,0,0,1,.2,1.172,1.389,1.389,0,0,1-.586.605,1,1,0,0,1-.723.078,1.073,1.073,0,0,1-.625-.488A2,2,0,0,1,21.466,18.25ZM29.3,32.586a1.324,1.324,0,0,0-.469.137q-.313.137-.645.313t-.645.332a1.259,1.259,0,0,1-.547.156,1.432,1.432,0,0,1-.684-.156.642.642,0,0,1-.293-.625A1.023,1.023,0,0,1,26.388,32a7.411,7.411,0,0,1,.879-.7q.508-.352,1.016-.664a2.664,2.664,0,0,0,.742-.625q-.078-.625-.117-2.344t.02-3.926q.059-2.207.273-4.551a29.322,29.322,0,0,1,.664-4.2,8.593,8.593,0,0,1,1.191-2.91,1.55,1.55,0,0,1,1.914-.664,2.446,2.446,0,0,1,1.484.488,4.578,4.578,0,0,1,1.133,1.211A6.028,6.028,0,0,1,36.31,14.7a5.562,5.562,0,0,1,.254,1.563,2.313,2.313,0,0,1-.176.84.643.643,0,0,1-.645.449h-.117a.113.113,0,0,1-.078-.039,10.129,10.129,0,0,0-1.582-3.027q-.645-.645-1.094-.02a5.877,5.877,0,0,0-.742,2.227q-.293,1.6-.488,3.691t-.352,4.414q-.156,2.324-.312,4.316a12.747,12.747,0,0,0,1.309-.391,9.6,9.6,0,0,0,.957-.41q.43-.215.781-.43a4.335,4.335,0,0,1,.781-.371q.82-.391,1.816-.762a5.523,5.523,0,0,1,1.934-.371,3.843,3.843,0,0,1-.41,1.875,3.662,3.662,0,0,1-1.055,1.211,4.329,4.329,0,0,1-1.465.684q-.82.215-1.66.371t-1.582.313a6.894,6.894,0,0,0-1.289.391q.117,2.539.332,4.453t.391,3.4q.176,1.484.273,2.715a13.889,13.889,0,0,1-.02,2.441q0,.273.02.762a5.827,5.827,0,0,1-.039.957,1.738,1.738,0,0,1-.293.8.845.845,0,0,1-.742.332,1.01,1.01,0,0,1-.7-.215A1.444,1.444,0,0,1,30,45.984q-.234-3.164-.371-5.371T29.416,36.9q-.078-1.5-.078-2.363v-1.8Q29.337,32.586,29.3,32.586Zm11.075,5.977-.586.117a2.85,2.85,0,0,1-.82.039,1.8,1.8,0,0,1-.762-.234.707.707,0,0,1-.332-.664.539.539,0,0,1,.117-.391q.117-.117.391-.352a6.032,6.032,0,0,0,1.465-1.816,22.381,22.381,0,0,0,1.113-2.383q.508-1.27,1.074-2.539a12.467,12.467,0,0,1,1.309-2.285,5.833,5.833,0,0,1,1.836-1.641,5.1,5.1,0,0,1,2.7-.586,4.218,4.218,0,0,1,1.484.313,6.214,6.214,0,0,1,1.523.84,4.734,4.734,0,0,1,1.172,1.27,3.01,3.01,0,0,1,.469,1.641q.2.313-.371.9a10.706,10.706,0,0,1-1.543,1.27q-.977.684-2.207,1.406t-2.363,1.348q-1.133.625-1.992,1.094a7.666,7.666,0,0,0-1.133.7,4.035,4.035,0,0,0-.312.9q-.117.508-.176.957t-.078.82q-.02.371-.02.566,0,.742-.059,1.641a7.269,7.269,0,0,0,.078,1.7,2.459,2.459,0,0,0,.645,1.328,2.32,2.32,0,0,0,1.719.527,4.819,4.819,0,0,0,2.422-.645,10.634,10.634,0,0,0,2.109-1.582,15.517,15.517,0,0,0,1.777-2.031q.8-1.094,1.445-2.051t1.152-1.582q.508-.625.859-.625a2.893,2.893,0,0,1,.84.137.6.6,0,0,1,.449.645,3.5,3.5,0,0,1-.566,1.68,14.9,14.9,0,0,1-1.484,2.07A21.834,21.834,0,0,1,51.6,43.23a24.146,24.146,0,0,1-2.4,1.914,15.011,15.011,0,0,1-2.383,1.367,5.158,5.158,0,0,1-2.07.527,3.7,3.7,0,0,1-2.656-.859,4.712,4.712,0,0,1-1.27-2.148,10.419,10.419,0,0,1-.391-2.754Q40.413,39.813,40.373,38.563Zm7.188-10.547a2.207,2.207,0,0,0-1.406.645,8.6,8.6,0,0,0-1.387,1.563A10.381,10.381,0,0,0,43.713,32.1a4.226,4.226,0,0,0-.41,1.582A5.034,5.034,0,0,0,45,33.23a15.25,15.25,0,0,0,2.207-1.113,12.555,12.555,0,0,0,1.914-1.406,2.024,2.024,0,0,0,.82-1.406.74.74,0,0,0-.273-.586,2.431,2.431,0,0,0-.645-.391,3.959,3.959,0,0,0-.762-.234A3.621,3.621,0,0,0,47.561,28.016Zm13.8-.117q0-3.594.156-7.129t.391-7.285a.63.63,0,0,1,.7-.508.632.632,0,0,1,.547.215,1.273,1.273,0,0,1,.215.488,2.258,2.258,0,0,1,.039.605q-.02.332-.02.566V26.8a10.022,10.022,0,0,0,.117,1.484l.234,1.563a13.284,13.284,0,0,1,.215,1.465,2.888,2.888,0,0,1-.1,1.152,1.247,1.247,0,0,1-.449.742,1.22,1.22,0,0,1-.8.313.983.983,0,0,1-.977-.7,5.465,5.465,0,0,1-.332-1.641,15.015,15.015,0,0,1,0-1.875Q61.366,28.367,61.366,27.9Zm2.461,18.164v-.625a2.3,2.3,0,0,1,.039-.41.867.867,0,0,1,.156-.371.411.411,0,0,1,.352-.156q.781,0,.918.371a2.543,2.543,0,0,1,.137.879,2.508,2.508,0,0,1-.137.9q-.137.352-.918.352a.411.411,0,0,1-.352-.156.867.867,0,0,1-.156-.371A2.3,2.3,0,0,1,63.827,46.063Z" transform="translate(412 316)" fill="#246914"/>
  </g>
</svg>
