<svg height="512pt" viewBox="0 0 512 512.00029" width="512pt" xmlns="http://www.w3.org/2000/svg"><path d="m487.617188 370.539062c-55.078126-55.078124-109.078126-109.078124-109.078126-109.078124-.011718-.011719-.011718-.011719-.019531-.019532 1.847657 8.648438 2.808594 17.578125 2.808594 26.6875v68.230469c0 33.199219-9.519531 65.519531-27.171875 93.242187 6.441406 35.71875 37.730469 62.398438 74.871094 62.398438 73.691406 0 110.730468-89.320312 58.589844-141.460938zm0 0"/><path d="m130.671875 288.128906c0-9.078125 1-18.070312 2.941406-26.808594-.050781.039063-.101562.089844-.152343.140626 0 0-54 54-109.078126 109.078124-52.140624 52.140626-15.101562 141.460938 58.589844 141.460938 37.140625 0 68.429688-26.679688 74.867188-62.398438-17.648438-27.710937-27.167969-60.042968-27.167969-93.242187zm0 0"/><path d="m305.949219 86.480469 9.121093-21.28125c9.160157-21.378907 30.121094-35.199219 53.390626-35.199219h.007812c8.449219 0 15.269531-6.988281 14.980469-15.507812-.269531-8.203126-7.328125-14.5429692-15.539063-14.492188-35.070312.21875-66.589844 21.121094-80.410156 53.390625l-12.460938 29.078125h5.0625c9.007813 0 17.6875 1.410156 25.847657 4.011719zm0 0"/><path d="m143.53125 30h.007812c23.269532 0 44.230469 13.820312 53.390626 35.199219l9.121093 21.28125c8.160157-2.601563 16.839844-4.011719 25.847657-4.011719h5.0625l-12.460938-29.078125c-13.820312-32.269531-45.339844-53.171875-80.410156-53.390625-8.210938-.0507812-15.269532 6.289062-15.539063 14.492188-.289062 8.519531 6.527344 15.507812 14.980469 15.507812zm0 0"/><path d="m168.019531 401.671875h175.964844c3.675781-11.050781 6.011719-22.554687 6.914063-34.273437h-189.792969c.90625 11.71875 3.238281 23.222656 6.914062 34.273437zm0 0"/><path d="m160.671875 303.128906h190.660156v34.269532h-190.660156zm0 0"/><path d="m161.851562 273.128906h188.304688c-3.949219-25.035156-17.617188-46.804687-37.019531-61.339844 13.425781-10.074218 22.128906-26.117187 22.128906-44.15625 0-30.417968-24.746094-55.164062-55.164063-55.164062h-48.199218c-30.417969 0-55.164063 24.746094-55.164063 55.164062 0 18.039063 8.703125 34.082032 22.128907 44.152344-19.410157 14.550782-33.066407 36.332032-37.015626 61.34375zm0 0"/><path d="m195.738281 450.367188 48.929688 56.457031c2.847656 3.289062 6.984375 5.175781 11.335937 5.175781 4.347656 0 8.484375-1.890625 11.335938-5.175781l48.929687-56.457031c5.097657-5.886719 9.671875-12.144532 13.714844-18.695313h-147.960937c4.039062 6.554687 8.617187 12.808594 13.714843 18.695313zm0 0"/></svg>