<svg id="Capa_1" enable-background="new 0 0 512.005 512.005" height="512" viewBox="0 0 512.005 512.005" width="512" xmlns="http://www.w3.org/2000/svg"><g><path d="m61 196.003c0 49.629 40.371 90 90 90h44.971c.005 0 .011-.004.016-.004l-.016-59.996c0-12.546 3.924-24.181 10.53-33.82-16.829-93.499-84.864-146.18-191.501-146.18-8.291 0-15 6.709-15 15 0 57.612 22.504 81.899 61.703 123.735-.469 3.735-.703 7.5-.703 11.265z"/><path d="m196 336.833-.005-20.83h-59.995c-41.422 0-75 33.578-75 75s33.578 75 75 75c33.047 0 60.784-21.513 70.778-51.189-5.488-18.622-9.243-41.576-10.309-67.581zm-60 69.17c-8.284 0-15-6.716-15-15s6.716-15 15-15 15 6.716 15 15-6.716 15-15 15z"/><path d="m189.297 74.421c31.89 15.952 51.709 48.003 51.709 83.657v42.537c-8.8 5.237-15 14.431-15 25.388l.439 120c1.699 41.265 9.727 68.379 16.685 80.01 2.71 4.526 7.603 7.295 12.876 7.295s10.166-2.769 12.876-7.295c6.958-11.631 14.985-38.745 16.685-80.01l.434-120c0-10.957-6.2-20.151-15-25.388v-42.537c0-35.654 19.825-67.705 51.714-83.657 7.412-3.706 10.415-12.715 6.709-20.127s-12.715-10.386-20.127-6.709c-23.311 11.655-41.484 29.962-53.291 51.843-11.807-21.881-29.98-40.188-53.291-51.843-7.397-3.677-16.392-.703-20.127 6.709-3.707 7.412-.704 16.421 6.709 20.127z"/><path d="m497.005 46.003c-106.637 0-174.672 52.681-191.501 146.18 6.606 9.639 10.512 21.273 10.512 33.82l-.016 59.996c.005 0 .011.004.016.004h44.989c49.629 0 91-40.371 91-90 0-3.765-1.234-7.529-1.703-11.265 39.199-41.836 61.703-66.123 61.703-123.735 0-8.291-6.708-15-15-15z"/><path d="m376.005 316.003h-60l-.005 20.83-.463 10.4c-1.066 26.005-4.821 48.959-10.309 67.581 9.994 29.676 37.731 51.189 70.778 51.189 41.422 0 75-33.578 75-75s-33.578-75-75.001-75zm0 90c-8.284 0-15-6.716-15-15s6.716-15 15-15 15 6.716 15 15-6.716 15-15 15z"/></g></svg>