<?xml version="1.0" encoding="iso-8859-1"?>
<!-- Generator: Adobe Illustrator 19.0.0, SVG Export Plug-In . SVG Version: 6.00 Build 0)  -->
<svg version="1.1" id="Capa_1" xmlns="http://www.w3.org/2000/svg" xmlns:xlink="http://www.w3.org/1999/xlink" x="0px" y="0px"
	 viewBox="0 0 512 512" style="enable-background:new 0 0 512 512;" xml:space="preserve">
<g>
	<g>
		<path d="M448.773,235.551C450.253,227.494,451,219.276,451,211c0-74.443-60.557-135-135-135
			c-47.52,0-91.567,25.313-115.766,65.537c-32.666-10.59-66.182-6.049-93.794,12.979c-27.612,19.013-44.092,49.116-45.425,82.031
			C24.716,253.788,0,290.497,0,331c0,7.031,1.703,13.887,3.006,20.537l0.015,0.015C12.719,400.492,56.034,436,106,436h300
			c57.891,0,106-47.109,106-105C512,290.058,486.947,253.202,448.773,235.551z"/>
	</g>
</g>
<g>
</g>
<g>
</g>
<g>
</g>
<g>
</g>
<g>
</g>
<g>
</g>
<g>
</g>
<g>
</g>
<g>
</g>
<g>
</g>
<g>
</g>
<g>
</g>
<g>
</g>
<g>
</g>
<g>
</g>
</svg>
